<svg xmlns="http://www.w3.org/2000/svg" version="1.1" xmlns:xlink="http://www.w3.org/1999/xlink" xmlns:svgjs="http://svgjs.dev/svgjs" width="128" height="128" viewBox="0 0 128 128"><g transform="matrix(0.42386831275720166,0,0,0.42386831275720166,36.86129523987446,12.760752631578939)"><svg viewBox="0 0 50 95" data-background-color="#282634" preserveAspectRatio="xMidYMid meet" height="243" width="128" xmlns="http://www.w3.org/2000/svg" xmlns:xlink="http://www.w3.org/1999/xlink"><g id="tight-bounds" transform="matrix(1,0,0,1,0.01025962041302364,-0.24049999999999727)"><svg viewBox="0 0 49.97948075917397 95.481" height="95.481" width="49.97948075917397"><g><svg viewBox="0 0 49.97948075917397 95.481" height="95.481" width="49.97948075917397"><g><svg viewBox="0 0 49.97948075917397 95.481" height="95.481" width="49.97948075917397"><g><svg viewBox="0 0 49.97948075917397 95.481" height="95.481" width="49.97948075917397"><g><svg viewBox="0 0 49.97948075917397 95.481" height="95.481" width="49.97948075917397"><g><svg viewBox="0 0 49.97948075917397 95.481" height="95.481" width="49.97948075917397"><g><svg xmlns="http://www.w3.org/2000/svg" xmlns:xlink="http://www.w3.org/1999/xlink" version="1.1" x="0" y="0" viewBox="19.682354658322133 3.5 35.57297155366782 67.95874717630606" enable-background="new 0 0 75 75" xml:space="preserve" height="95.481" width="49.97948075917397" class="icon-icon-0" data-fill-palette-color="accent" id="icon-0"><path d="M21.2 59.5c-1.1-2.6-4.2-12.2 3.8-24.7C36 18 31.7 3.5 31.7 3.5S46 8.8 41.7 37.5c-1 6.5-0.9 9 2 9.4 5 0.7 3.1-19.7 3.1-19.7s3.9 2 6.8 12.1c1.5 5.3 1.8 9.5 1.6 12.5-1 18.1-16.5 19.6-16.5 19.6S26.9 73 21.2 59.5z" fill="#ffffff" data-fill-palette-color="accent"></path></svg></g></svg></g></svg></g></svg></g></svg></g></svg></g><defs></defs></svg><rect width="49.97948075917397" height="95.481" fill="none" stroke="none" visibility="hidden"></rect></g></svg></g></svg>