<svg xmlns="http://www.w3.org/2000/svg" version="1.1" xmlns:xlink="http://www.w3.org/1999/xlink" xmlns:svgjs="http://svgjs.dev/svgjs" width="128" height="128" viewBox="0 0 128 128"><g transform="matrix(0.8046875,0,0,0.8046875,12.333870967741937,12.333870967741937)"><svg viewBox="0 0 155 155" data-background-color="#282634" preserveAspectRatio="xMidYMid meet" height="128" width="128" xmlns="http://www.w3.org/2000/svg" xmlns:xlink="http://www.w3.org/1999/xlink"><g id="tight-bounds" transform="matrix(1,0,0,1,0.25,0.25)"><svg viewBox="0 0 154.5 154.5" height="154.5" width="154.5"><g><svg></svg></g><g><svg viewBox="0 0 154.5 154.5" height="154.5" width="154.5"><g transform="matrix(1,0,0,1,57.706840094979654,43.83165)"><svg viewBox="0 0 39.0863198100407 66.8367" height="66.8367" width="39.0863198100407"><g><svg viewBox="0 0 39.0863198100407 66.8367" height="66.8367" width="39.0863198100407"><g><svg viewBox="0 0 39.0863198100407 66.8367" height="66.8367" width="39.0863198100407"><g><svg viewBox="0 0 39.0863198100407 66.8367" height="66.8367" width="39.0863198100407"><g><svg viewBox="0 0 39.0863198100407 66.8367" height="66.8367" width="39.0863198100407"><g transform="matrix(1,0,0,1,0,0)"><svg width="39.0863198100407" viewBox="0.9 -36.55 21.55 36.849999999999994" height="66.8367" data-palette-color="#5628c7"><path d="M11.8 0.3L11.8 0.3Q8.55 0.3 6.1-0.85 3.65-2 2.27-4.08 0.9-6.15 0.9-8.85L0.9-8.85Q0.9-10.05 1.45-10.48 2-10.9 3-10.9L3-10.9Q3.8-10.9 4.42-10.58 5.05-10.25 5.1-9.45L5.1-9.45Q5.15-7.75 5.9-6.38 6.65-5 8.1-4.25 9.55-3.5 11.65-3.5L11.65-3.5Q14.8-3.5 16.53-5.23 18.25-6.95 18.25-10.6L18.25-10.6 18.25-32.75 11.75-32.75Q11.05-32.75 10.68-33.35 10.3-33.95 10.3-34.7L10.3-34.7Q10.3-35.35 10.63-35.95 10.95-36.55 11.75-36.55L11.75-36.55 20.55-36.55Q21.3-36.55 21.88-36.18 22.45-35.8 22.45-35.05L22.45-35.05 22.45-10.6Q22.45-6.65 21.03-4.25 19.6-1.85 17.18-0.78 14.75 0.3 11.8 0.3Z" opacity="1" transform="matrix(1,0,0,1,0,0)" fill="#5628c7" class="undefined-text-0" data-fill-palette-color="primary" id="text-0"></path></svg></g></svg></g></svg></g></svg></g></svg></g></svg></g><g mask="url(#f2c30539-b2e5-4061-b61d-ebe34133ac90)"><g transform="matrix(1.525, 0, 0, 1.525, 10.746274999999997, 1)"><svg xmlns="http://www.w3.org/2000/svg" xmlns:xlink="http://www.w3.org/1999/xlink" version="1.1" x="0" y="0" viewBox="6.391000000000002 0 87.218 100" enable-background="new 0 0 100 100" xml:space="preserve" height="100" width="87.218" class="icon-none" data-fill-palette-color="accent" id="none"><path fill="#dcdcdc" d="M77.806 12.728C67.152 12.728 56.381 8.48 50 0c-6.38 8.479-17.154 12.727-27.807 12.727-5.508 0-10.983-1.135-15.802-3.409 0.54 14.316 1.604 28.825 3.999 42.962 1.222 7.749 2.422 16.888 6.666 23.668 3.729 6.528 9.515 11.869 15.722 16.006 4.715 3.137 9.846 5.717 15.187 7.612 0.853 0.303 1.502 0.434 2.1 0.434 1.036 0 1.917-0.394 3.434-0.974 12.28-4.715 25.46-13.388 30.882-25.855 4.878-11.093 5.954-24.273 7.206-36.19 0.968-9.189 1.671-18.426 2.022-27.663C88.79 11.592 83.312 12.728 77.806 12.728zM81.641 35.937l-0.267 2.568c-0.396 3.824-0.797 7.694-1.326 11.496H50v39.658c-0.001 0-0.002 0.001-0.003 0.001-4.081-1.561-8.003-3.585-11.673-6.026-5.664-3.775-10.016-8.147-12.584-12.645l-0.1-0.175-0.107-0.171c-2.877-4.597-4.016-11.91-5.021-18.363l-0.244-1.557-0.009-0.056-0.01-0.056c-0.034-0.201-0.065-0.408-0.099-0.609H50V13.899l0 0c7.62 5.639 17.418 8.829 27.806 8.829 1.693 0 3.378-0.086 5.046-0.257C82.525 26.877 82.121 31.375 81.641 35.937z" data-fill-palette-color="accent"></path></svg></g></g></svg></g><defs><mask id="f2c30539-b2e5-4061-b61d-ebe34133ac90"><rect width="250" height="250" fill="white"></rect><rect width="42.99495179104477" height="98.3937815784" fill="black" x="103.50252410447762" y="75.8031092108" id="transform-me" transform="matrix(1,0,0,1,-47.75,-47.75)"></rect></mask></defs></svg><rect width="154.5" height="154.5" fill="none" stroke="none" visibility="hidden"></rect></g></svg></g></svg>